<html>
<head>
<meta charset="UTF-8">
<meta name="viewport" content="width=device-width, initial-scale=1.0"/>

<style>
.comment
{
    padding-left: 20px;
    margin-top: 4px;
    margin-right: 4px;
    margin-bottom: 4px;
    border: 2px #000 solid;
}
.submission
{
    border: 4px #00f solid;
    padding-left: 20px;
}
.hidden
{
    display: none;
}
</style>
</head>
<body><div class="submission" id="t3_44qtfb">
    <p class="userinfo">
        <a href="https://www.reddit.com/u/joaopedro735">joaopedro735</a>
        <span class="score"> | 13 points</span>
        <span class="timestamp"> | Feb 08 2016 13:06:21</span>
    </p>
    <strong>[Movie] Noot Cool (2014) 720p</strong>
    <p><p>Link: https://mega.nz/#!OFtg3CqY!DQkZyZnAWEs2QenBo3Yy_SwBCSIbnxCj31T-EZvzh-E</p>
<blockquote>
<p>General</p>
</blockquote>
<p>Complete name               : Not.Cool.2014.720p.WEB-DL.x264[ETRG]\Not.Cool.2014.720p.WEB-DL.x264[ETRG].mkv</p>
<p>Format                      : Matroska</p>
<p>Format version              : Version 4 / Version 2</p>
<p>File size                   : 2.81 GiB</p>
<p>Duration                    : 1h 31mn</p>
<p>Overall bit rate            : 4 383 Kbps</p>
<p>Encoded date                : UTC 2014-09-23 17:10:48</p>
<p>Writing application         : mkvmerge v6.7.0 ('Back to the Ground') 64bit built on Jan  8 2014 15:10:52</p>
<p>Writing library             : libebml v1.3.0 + libmatroska v1.4.1</p>
<blockquote>
<p>Video</p>
</blockquote>
<p>ID                          : 1</p>
<p>Format                      : AVC</p>
<p>Format/Info                 : Advanced Video Codec</p>
<p>Format profile              : High@L3.1</p>
<p>Format settings, CABAC      : No</p>
<p>Format settings, ReFrames   : 2 frames</p>
<p>Format settings, GOP        : N=1</p>
<p>Codec ID                    : V_MPEG4/ISO/AVC</p>
<p>Duration                    : 1h 31mn</p>
<p>Bit rate                    : 3 912 Kbps</p>
<p>Width                       : 1 280 pixels</p>
<p>Height                      : 692 pixels</p>
<p>Display aspect ratio        : 1.85:1</p>
<p>Frame rate mode             : Constant</p>
<p>Frame rate                  : 23.976 fps</p>
<p>Color space                 : YUV</p>
<p>Chroma subsampling          : 4:2:0</p>
<p>Bit depth                   : 8 bits</p>
<p>Scan type                   : Progressive</p>
<p>Bits/(Pixel*Frame)          : 0.184</p>
<p>Stream size                 : 2.51 GiB (89%)</p>
<p>Language                    : English</p>
<p>Default                     : Yes</p>
<p>Forced                      : No</p>
<p>Color range                 : Limited</p>
<p>Color primaries             : BT.709</p>
<p>Transfer characteristics    : BT.709</p>
<p>Matrix coefficients         : BT.709</p>
<blockquote>
<p>Audio</p>
</blockquote>
<p>ID                          : 2</p>
<p>Format                      : AC-3</p>
<p>Format/Info                 : Audio Coding 3</p>
<p>Mode extension              : CM (complete main)</p>
<p>Format settings, Endianness : Big</p>
<p>Codec ID                    : A_AC3</p>
<p>Duration                    : 1h 31mn</p>
<p>Bit rate mode               : Constant</p>
<p>Bit rate                    : 384 Kbps</p>
<p>Channel(s)                  : 6 channels</p>
<p>Channel positions           : Front: L C R, Side: L R, LFE</p>
<p>Sampling rate               : 48.0 KHz</p>
<p>Frame rate                  : 31.250 fps (1536 spf)</p>
<p>Compression mode            : Lossy</p>
<p>Stream size                 : 252 MiB (9%)</p>
<p>Language                    : English</p>
<p>Default                     : Yes</p>
<p>Forced                      : No</p>
<blockquote>
<p>Text</p>
</blockquote>
<p>ID                          : 3</p>
<p>Format                      : UTF-8</p>
<p>Codec ID                    : S_TEXT/UTF8</p>
<p>Codec ID/Info               : UTF-8 Plain Text</p>
<p>Language                    : English</p>
<p>Default                     : Yes</p>
<p>Forced                      : No</p>
<blockquote>
<p>Menu</p>
</blockquote>
<p>00:00:00.000                : en:Chapter 1</p>
<p>00:05:38.000                : en:Chapter 2</p>
<p>00:15:04.000                : en:Chapter 3</p>
<p>00:25:56.000                : en:Chapter 4</p>
<p>00:36:56.000                : en:Chapter 5</p>
<p>00:46:30.000                : en:Chapter 6</p>
<p>00:55:10.000                : en:Chapter 7</p>
<p>01:04:18.000                : en:Chapter 8</p>
<p>01:12:39.000                : en:Chapter 9</p>
<p>01:18:49.000                : en:Chapter 10</p>
<p>01:25:56.000                : en:Chapter 11</p></p>
    <p class="toolbar">
        <a href="https://www.reddit.com/r/megalinks/comments/44qtfb">permalink</a>
    </p>
</div>

</body>

<script>
function toggle_collapse(comment_div)
{
    var button = comment_div.getElementsByClassName("toggle_hide_button")[0];
    var collapsible = comment_div.getElementsByClassName("collapsible")[0];
    if (collapsible.classList.contains("hidden"))
    {
        collapsible.classList.remove("hidden");
        button.innerText = "[-]";
    }
    else
    {
        collapsible.classList.add("hidden");
        button.innerText = "[+]";
    }
}
</script>
</html>
